<?xml version="1.0" encoding="utf-8"?>
<!-- Generator: Adobe Illustrator 30.6.0, SVG Export Plug-In . SVG Version: 9.03 Build 0)  -->
<svg version="1.0" id="Layer_1" xmlns="http://www.w3.org/2000/svg" xmlns:xlink="http://www.w3.org/1999/xlink" x="0px" y="0px"
	 viewBox="0 0 109.99 110" style="enable-background:new 0 0 109.99 110;" xml:space="preserve">
<style type="text/css">
	.st0{fill:#FFFFFF;}
</style>
<g>
	<path class="st0" d="M82.47,84.06C75.1,91.03,65.35,94.98,55,94.98c-20.57,0-37.52-15.52-39.74-35.49H6.51
		c-0.99,0-1.8-0.81-1.8-1.8c0-0.39,0.14-0.77,0.37-1.09l12.1-15.9c0.6-0.78,1.74-0.94,2.52-0.33c0.13,0.09,0.25,0.22,0.33,0.33
		l12.1,15.9c0.6,0.78,0.44,1.92-0.35,2.52c-0.31,0.24-0.7,0.37-1.08,0.37h-9.12C23.79,75.97,37.9,88.68,55,88.68
		c8.73,0,16.92-3.33,23.15-9.21c1.25-1.2,3.25-1.15,4.44,0.13C83.78,80.87,83.72,82.86,82.47,84.06z"/>
	<path class="st0" d="M105,53.27l-0.08,0.12l-12.1,15.9c-0.1,0.13-0.22,0.25-0.33,0.33c-0.75,0.58-1.81,0.46-2.43-0.23l-0.09-0.12
		L77.85,53.39c-0.24-0.31-0.36-0.7-0.36-1.09c0-0.94,0.74-1.73,1.67-1.78l0.14-0.01h9.11C86.2,34.01,72.08,21.3,55,21.3
		c-8.7,0-16.87,3.29-23.08,9.13c-1.25,1.2-3.25,1.14-4.44-0.14c-1.19-1.25-1.13-3.25,0.15-4.44C34.98,18.93,44.68,15.02,55,15.02
		c20.56,0,37.51,15.52,39.73,35.49h8.75c0.39,0,0.77,0.14,1.09,0.37C105.32,51.44,105.49,52.49,105,53.27z"/>
	<path class="st0" d="M66.71,56.09c-0.09,0.12-0.21,0.24-0.32,0.32L50.47,68.53c-0.77,0.61-1.92,0.45-2.52-0.32
		c-0.21-0.35-0.37-0.7-0.37-1.09V42.89c0-0.99,0.82-1.8,1.81-1.8c0.39,0,0.78,0.15,1.08,0.38l15.91,12.09
		C67.16,54.16,67.32,55.31,66.71,56.09z"/>
</g>
</svg>
