<?xml version="1.0" encoding="utf-8"?>
<!-- Generator: Adobe Illustrator 30.6.0, SVG Export Plug-In . SVG Version: 9.03 Build 0)  -->
<svg version="1.0" id="Layer_1" xmlns="http://www.w3.org/2000/svg" xmlns:xlink="http://www.w3.org/1999/xlink" x="0px" y="0px"
	 viewBox="0 0 109.99 110" style="enable-background:new 0 0 109.99 110;" xml:space="preserve">
<style type="text/css">
	.st0{fill:#FFFFFF;}
</style>
<path class="st0" d="M90.51,47.43c-0.02,0.56-0.15,1.08-0.52,1.52l-37.08,51.06c-0.32,0.39-0.82,0.65-1.32,0.65
	c-0.93,0-1.67-0.76-1.67-1.67V70.22c0-1.37-0.56-2.64-1.47-3.6c-0.97-0.93-2.25-1.49-3.61-1.49H22.08c-1.43,0-2.6-1.15-2.6-2.58
	c0-0.56,0.15-1.06,0.5-1.53L57.07,9.99c0.32-0.39,0.82-0.65,1.32-0.65c0.93,0,1.67,0.76,1.67,1.65v28.76c0,1.38,0.56,2.64,1.47,3.61
	c0.97,0.93,2.25,1.47,3.61,1.47h22.77C89.34,44.84,90.51,46.01,90.51,47.43z"/>
</svg>
